<mxfile host="app.diagrams.net" modified="2022-06-24T00:46:34.079Z" agent="5.0 (Windows NT 10.0; Win64; x64) AppleWebKit/537.36 (KHTML, like Gecko) Chrome/102.0.0.0 Safari/537.36" etag="aKQ0ibqmshQtjZNCNSe0" version="20.0.3" type="github">
  <diagram id="NqO-kqYFqVSlYNchF1dA" name="Page-1">
    <mxGraphModel dx="2769" dy="1502" grid="1" gridSize="10" guides="1" tooltips="1" connect="1" arrows="1" fold="1" page="0" pageScale="1" pageWidth="827" pageHeight="1169" background="none" math="0" shadow="1">
      <root>
        <mxCell id="0" />
        <mxCell id="1" parent="0" />
        <mxCell id="DelEz_Ygmoad4pza19I0-4" value="&lt;font style=&quot;font-size: 19px;&quot;&gt;CASO DE USO&amp;nbsp;&lt;br&gt;UNDO&amp;nbsp;&lt;br&gt;&lt;/font&gt;" style="text;strokeColor=none;fillColor=none;html=1;align=center;verticalAlign=middle;whiteSpace=wrap;rounded=0;hachureGap=4;fontSize=16;" vertex="1" parent="1">
          <mxGeometry x="-520" y="240" width="140" height="100" as="geometry" />
        </mxCell>
        <mxCell id="DelEz_Ygmoad4pza19I0-5" value="&lt;font style=&quot;font-size: 19px;&quot;&gt;CASO DE USO&amp;nbsp;&lt;br&gt;REDO&lt;br&gt;&lt;/font&gt;" style="text;strokeColor=none;fillColor=none;html=1;align=center;verticalAlign=middle;whiteSpace=wrap;rounded=0;hachureGap=4;fontSize=16;" vertex="1" parent="1">
          <mxGeometry x="-520" y="1400" width="150" height="110" as="geometry" />
        </mxCell>
      </root>
    </mxGraphModel>
  </diagram>
</mxfile>
